:SAMPLES-PER-SECOND 30
:FRAME-RANGE 1-744
:FULLY-SPECIFIED
:DEGREES
117
root  -38.3526 38.9936 -137.155 -9.03401 47.3559 -6.67035
RightUpLeg  -3.44354 -4.94636 -5.16383
RightLeg  7.45516 -14.2624 -3.34181
RightFoot  -2.50873 -0.833898 10.5469
RightToes  5.82063e-011 0 -3.6325e-017
Spine  11.805 -0.65711 6.00068
Spine1  0.24729 0.447531 -0.258323
HEad  0.771115 12.9135 -6.20916
LeftShoulder1  3.29531 -4.68264 -34.2372
LeftArm  31.5242 4.82035 -26.906
LeftForeArm  -9.9285 -8.11186 -17.7995
LeftHand  -1.15061 -3.91129 14.5752
RightShoulder  0.16169 -3.2604 65.2564
RightArm  9.20096 -3.46727 -7.99267
RightForeArm  9.75078 -4.01208 16.0037
RightHand  1.01039 19.8995 4.10058
LeftUpLeg  19.986 16.6156 28.0618
LeftLeg  -0.342366 19.07 -1.9035
LeftFoot  3.33711 2.59881 -20.1534
LeftToes  1.25507e-010 -3.78807e-010 5.71421e-011
118
root  -38.538 38.9776 -135.679 -8.85229 44.6936 -6.38542
RightUpLeg  -3.75417 -3.7952 -3.14985
RightLeg  10.0648 -13.1114 -3.69078
RightFoot  -3.93977 -0.729838 10.8368
RightToes  5.82063e-011 0 -3.6325e-017
Spine  11.4875 -1.00641 6.22671
Spine1  0.476416 0.0994707 0.266898
HEad  1.50123 16.9632 -6.07106
LeftShoulder1  3.25938 -4.65962 -33.9141
LeftArm  27.9266 6.84826 -26.6656
LeftForeArm  -7.90031 -8.04428 -17.4944
LeftHand  -1.15962 -4.11069 14.3909
RightShoulder  0.223736 -3.17975 65.2955
RightArm  9.96739 -3.36126 -8.39136
RightForeArm  9.95116 -4.21916 16.1855
RightHand  1.1209 19.7494 4.6342
LeftUpLeg  20.5608 17.1773 30.3602
LeftLeg  2.29921 19.9375 -0.173358
LeftFoot  8.72257 3.33819 -19.022
LeftToes  1.25507e-010 -3.78807e-010 5.71421e-011
119
root  -38.6968 39.0327 -134.273 -8.98923 42.427 -6.07422
RightUpLeg  -2.77954 -3.10692 -1.3917
RightLeg  11.2625 -11.8607 -3.51847
RightFoot  -5.9656 -0.507204 9.91299
RightToes  5.82063e-011 0 -3.6325e-017
Spine  11.7012 -1.36577 6.36382
Spine1  0.349702 -0.215534 0.702762
HEad  2.27164 20.2924 -5.40917
LeftShoulder1  3.28943 -4.73637 -33.9076
LeftArm  26.1873 8.66176 -26.4677
LeftForeArm  -7.18081 -8.3186 -17.186
LeftHand  -1.19316 -4.0164 14.9371
RightShoulder  0.328564 -3.04226 65.1711
RightArm  10.2395 -2.97083 -8.57954
RightForeArm  10.9695 -4.50444 16.257
RightHand  1.17091 19.8555 4.83928
LeftUpLeg  19.6806 17.7016 31.1851
LeftLeg  6.49334 17.3722 2.10111
LeftFoot  13.7093 0.989602 -4.83271
LeftToes  1.25507e-010 -3.78807e-010 5.71421e-011
120
root  -38.8214 39.1521 -132.973 -8.65808 39.6265 -5.19365
RightUpLeg  -1.35781 -1.56284 0.374869
RightLeg  11.2672 -10.9456 -4.14657
RightFoot  -7.30105 -0.364518 8.90597
RightToes  5.82063e-011 0 -3.6325e-017
Spine  12.0699 -1.32304 6.60477
Spine1  0.411518 -0.00497527 0.291526
HEad  2.25169 22.8769 -4.96107
LeftShoulder1  3.29772 -4.7063 -34.1518
LeftArm  26.8701 9.50973 -26.4108
LeftForeArm  -7.35936 -9.01854 -16.8426
LeftHand  -1.22605 -4.48757 14.6357
RightShoulder  0.69592 -2.55906 64.9566
RightArm  10.3347 -2.34626 -8.68786
RightForeArm  11.1948 -4.28839 16.2837
RightHand  1.13991 19.4624 4.78369
LeftUpLeg  18.0672 16.9825 29.6745
LeftLeg  12.2014 11.1928 3.05006
LeftFoot  6.21297 0.0356079 -0.475432
LeftToes  1.25507e-010 -3.78807e-010 5.71421e-011
121
root  -38.8836 39.283 -131.746 -7.97031 36.5436 -4.03603
RightUpLeg  0.27744 -0.501265 1.64482
RightLeg  10.4817 -9.19246 -4.62784
RightFoot  -8.30494 -0.269403 8.01796
RightToes  5.82063e-011 0 -3.6325e-017
Spine  12.0776 -0.817275 6.75069
Spine1  0.697152 0.639465 -0.10887
HEad  2.03299 24.6608 -5.00058
LeftShoulder1  3.29511 -4.64458 -34.42
LeftArm  26.9846 9.87922 -26.8095
LeftForeArm  -6.54331 -9.18933 -16.7055
LeftHand  -1.21609 -4.52031 14.4744
RightShoulder  1.28641 -1.77228 64.5567
RightArm  9.88429 -1.3952 -8.58764
RightForeArm  11.8804 -4.71584 16.2662
RightHand  1.04598 19.6176 4.31817
LeftUpLeg  15.9246 15.6342 26.3119
LeftLeg  16.8281 6.57511 2.55137
LeftFoot  -0.654262 0.0233999 -0.207991
LeftToes  1.25507e-010 -3.78807e-010 5.71421e-011
122
root  -38.8955 39.429 -130.598 -7.0195 33.0955 -2.91115
RightUpLeg  2.00293 -0.627706 1.95728
RightLeg  8.71635 -5.95706 -3.92783
RightFoot  -8.81632 -0.216912 7.11093
RightToes  5.82063e-011 0 -3.6325e-017
Spine  12.5455 -0.328834 7.79718
Spine1  -0.0749978 1.5527 -1.98966
HEad  2.40436 26.9032 -4.82866
LeftShoulder1  3.22232 -4.50394 -34.2228
LeftArm  26.2869 11.0051 -27.3662
LeftForeArm  -5.36588 -9.56146 -16.3673
LeftHand  -1.20893 -4.79918 14.015
RightShoulder  2.09213 -0.692741 64.2766
RightArm  9.3498 -0.510093 -8.33265
RightForeArm  12.4382 -4.8987 16.1878
RightHand  1.11855 19.4055 4.69733
LeftUpLeg  12.9997 14.9801 22.1654
LeftLeg  20.6288 3.64947 1.84193
LeftFoot  -4.72476 0.111669 -1.44036
LeftToes  1.25507e-010 -3.78807e-010 5.71421e-011
123
root  -38.8642 39.5612 -129.474 -6.12285 30.2745 -1.87288
RightUpLeg  4.08404 -1.1315 1.8228
RightLeg  6.4362 -2.90751 -3.18878
RightFoot  -9.16249 -0.184845 6.43627
RightToes  5.82063e-011 0 -3.6325e-017
Spine  12.8625 0.267133 8.2792
Spine1  -0.707323 2.3004 -3.03241
HEad  2.34211 29.2191 -5.57305
LeftShoulder1  3.16299 -4.34009 -34.3046
LeftArm  24.7613 11.8543 -28.0031
LeftForeArm  -4.56718 -9.58719 -16.206
LeftHand  -1.20383 -4.67339 14.1243
RightShoulder  2.95151 0.489836 63.7291
RightArm  8.49445 0.416459 -8.06453
RightForeArm  12.9128 -4.66299 16.0097
RightHand  1.4611 19.6892 6.20405
LeftUpLeg  9.0884 14.7375 17.8704
LeftLeg  23.8475 1.81685 1.20842
LeftFoot  -7.68231 0.0871486 -1.28359
LeftToes  1.25507e-010 -3.78807e-010 5.71421e-011
124
root  -38.8416 39.6963 -128.373 -5.38687 27.8817 -0.653976
RightUpLeg  6.53162 -1.54334 1.42795
RightLeg  3.95269 -0.318266 -2.96206
RightFoot  -9.31721 -0.157883 5.3482
RightToes  5.82063e-011 0 -3.6325e-017
Spine  13.4378 0.920007 8.38505
Spine1  -1.17642 3.07713 -4.23965
HEad  1.8473 31.3032 -6.12385
LeftShoulder1  3.09723 -4.21692 -34.0977
LeftArm  22.7091 12.3261 -28.8164
LeftForeArm  -3.03744 -9.30558 -16.1534
LeftHand  -1.22975 -5.16862 13.7723
RightShoulder  3.87978 1.75039 63.6027
RightArm  8.51289 1.27041 -7.75619
RightForeArm  13.1498 -3.66554 15.9085
RightHand  1.43917 19.5427 6.14382
LeftUpLeg  4.70113 13.5658 13.0184
LeftLeg  25.809 2.52485 1.66382
LeftFoot  -9.53165 0.0689913 -0.744229
LeftToes  1.25507e-010 -3.78807e-010 5.71421e-011
125
root  -38.7906 39.8129 -127.314 -4.75032 25.9097 0.680038
RightUpLeg  9.04857 -1.83819 0.78817
RightLeg  1.60233 1.80621 -3.15436
RightFoot  -9.56065 -0.136049 4.57228
RightToes  5.82063e-011 0 -3.6325e-017
Spine  14.2128 1.52152 8.33521
Spine1  -1.58282 3.79072 -5.59117
HEad  0.897168 33.1373 -6.8373
LeftShoulder1  3.04183 -4.07735 -34.1043
LeftArm  21.0718 12.4171 -29.4414
LeftForeArm  -1.9942 -9.01451 -16.1559
LeftHand  -1.23368 -5.19493 13.7822
RightShoulder  4.90516 3.13215 63.618
RightArm  8.92218 2.29048 -7.45217
RightForeArm  13.5616 -2.56425 15.834
RightHand  1.22694 19.5574 5.16342
LeftUpLeg  0.274178 12.0791 8.21135
LeftLeg  26.127 3.78824 2.35711
LeftFoot  -10.4993 0.0643193 -0.173366
LeftToes  1.25507e-010 -3.78807e-010 5.71421e-011
126
root  -38.6928 39.8919 -126.277 -4.24287 24.106 1.82903
RightUpLeg  11.4311 -2.0613 0.136598
RightLeg  -0.424121 3.65288 -3.52582
RightFoot  -9.7982 -0.121472 4.07705
RightToes  5.82063e-011 0 -3.6325e-017
Spine  14.6057 2.1273 8.52141
Spine1  -1.43247 4.57653 -6.97458
HEad  -0.0290707 34.5371 -7.46468
LeftShoulder1  3.02474 -4.00155 -34.2789
LeftArm  19.7409 12.0852 -29.9195
LeftForeArm  -0.94939 -8.39177 -16.3598
LeftHand  -1.2291 -5.29184 13.6137
RightShoulder  6.08411 4.73579 63.5388
RightArm  8.9866 3.32205 -6.96615
RightForeArm  14.7185 -1.83331 15.6721
RightHand  0.919145 19.6745 3.72531
LeftUpLeg  -3.74807 10.4937 3.98701
LeftLeg  24.4017 4.82882 2.7253
LeftFoot  -11.1239 0.066459 0.176413
LeftToes  1.25507e-010 -3.78807e-010 5.71421e-011
